<?xml version="1.0" encoding="utf-8"?>
<!-- Generator: Adobe Illustrator 24.0.0, SVG Export Plug-In . SVG Version: 6.00 Build 0)  -->
<svg version="1.1" id="Capa_1" xmlns="http://www.w3.org/2000/svg" xmlns:xlink="http://www.w3.org/1999/xlink" x="0px" y="0px"
	 viewBox="0 0 298.53 298.53" style="enable-background:new 0 0 298.53 298.53;" xml:space="preserve">
<style type="text/css">
	.st0{fill:#242E42;}
	.st1{fill:#FFFFFF;}
	.st2{fill:#4581C2;}
</style>
<rect class="st0" width="298.53" height="298.53"/>
<g>
	<g>
		<g>
			<path class="st1" d="M137.35,102.53c1.01,0.98,2.05,1.99,3.02,3.06c2.64,2.91,5.31,6.01,8.15,9.45c0.49-0.04,1.01-0.08,1.53-0.11
				c1.78-2.23,3.6-4.4,5.41-6.45c1.09-1.23,2.21-2.44,3.33-3.64c1.68-1.8,3.41-3.67,4.99-5.59l0.59-0.72
				c1.3-1.58,2.61-3.19,3.92-4.81c-2.47-0.49-5.1-0.86-7.89-1.1c-1.95,2.29-3.95,4.51-5.99,6.77c-1.39,1.55-2.81,3.12-4.24,4.75
				l-0.63,0.72l-0.7-0.65c-0.99-0.92-1.84-1.83-2.57-2.61c-0.97-1.05-1.95-2.09-2.93-3.14c-1.55-1.65-3.11-3.32-4.65-5.02
				c-1.84,0.35-3.62,0.77-5.32,1.29c-0.75,0.23-1.48,0.47-2.2,0.72c0.63,0.82,1.27,1.63,1.88,2.45
				C134.28,99.56,135.77,101,137.35,102.53z"/>
			<path class="st1" d="M149.27,92.58c0-0.02,0.1-0.09,0.26-0.27c-0.19,0.01-0.38,0.01-0.56,0.02
				C149.13,92.49,149.23,92.56,149.27,92.58z"/>
			<path class="st1" d="M179.61,121.27l7.83-20.86c-2.72-1.45-5.99-2.81-9.77-4.09c-0.35,0.43-0.7,0.86-1.04,1.29
				c-0.8,0.98-1.6,1.97-2.39,2.96c-1.44,1.82-2.97,3.62-4.44,5.36l-1.56,1.86c-0.42,0.5-0.85,0.98-1.28,1.47L166.3,110
				c-0.87,0.99-1.74,1.98-2.62,2.98c-0.68,0.77-1.37,1.56-2.06,2.35c2.47,0.33,4.73,0.81,6.78,1.46
				C172.51,118.08,176.25,119.58,179.61,121.27z"/>
			<path class="st1" d="M190.92,165.89c-1.51-3.96-3.8-7.41-6.87-10.35c-3.07-2.94-6.93-5.51-11.56-7.72
				c-4.64-2.21-10.09-4.44-16.35-6.7c-3.01-1.02-5.77-2.01-8.26-2.97s-4.7-2.04-6.61-3.22c-1.91-1.19-3.39-2.52-4.43-3.99
				s-1.57-3.28-1.57-5.43c0-3.33,1.22-5.86,3.63-7.61c-2.06-2.43-4.09-4.82-6.09-7.15c-1.08-1.27-2.23-2.53-3.35-3.74
				c-1.05-1.15-2.1-2.3-3.12-3.48c-1.17-1.35-2.34-2.73-3.5-4.14c-1.19,0.74-2.33,1.53-3.4,2.39c-3.83,3.05-6.78,6.76-8.87,11.11
				c-2.09,4.35-3.13,9.24-3.13,14.67s0.99,10.04,2.96,13.83c1.97,3.79,4.52,7.01,7.65,9.67s6.67,4.86,10.61,6.62
				c3.94,1.75,7.88,3.31,11.83,4.66c9.04,2.94,15.42,5.68,19.13,8.23c3.71,2.54,5.57,5.74,5.57,9.58c0,1.81-0.29,3.45-0.87,4.92
				s-1.62,2.74-3.13,3.82c-1.51,1.07-3.51,1.92-6,2.54s-5.65,0.93-9.48,0.93c-7.65,0-14.12-0.76-19.39-2.29
				c-5.28-1.53-9.71-3.25-13.3-5.17l-7.65,21.03c1.62,0.9,3.62,1.87,6,2.88c2.38,1.02,5.22,1.98,8.52,2.88
				c3.3,0.9,7.1,1.67,11.39,2.29c4.29,0.62,9.1,0.93,14.43,0.93c15.88,0,27.77-3.03,35.65-9.08s11.83-14.56,11.83-25.53
				C193.18,174.65,192.42,169.85,190.92,165.89z"/>
		</g>
		<g>
			<g>
				<path class="st2" d="M150.04,114.93c-0.14,0.17-0.27,0.33-0.41,0.5c-0.19,0.24-0.31,0.36-0.39,0.43
					c-0.08-0.06-0.2-0.18-0.38-0.4c-0.12-0.15-0.23-0.28-0.35-0.42c-3.94,0.35-6.94,1.15-8.98,2.42c-0.22,0.14-0.42,0.29-0.63,0.44
					c2.76,3.26,5.58,6.61,8.53,10.13c0.43,0.51,1.02,1.1,1.83,1.1c0.01,0,0.02,0,0.03,0c0.82-0.01,1.39-0.61,1.79-1.13
					c2.47-3.17,4.52-5.71,6.45-7.97c1.34-1.58,2.72-3.15,4.09-4.71c-2.49-0.33-5.18-0.49-8.09-0.49
					C152.29,114.83,151.14,114.87,150.04,114.93z"/>
				<path class="st2" d="M129.97,93.92c-4.55-5.86-9.26-11.91-11.7-19.19c-2.07-6.18-1.75-10.46-1.11-14.15
					c2-11.03,8.19-19.17,18.4-24.22c3.96-1.96,8.33-2.94,13.36-3.01l0,0c0.16,0,0.32,0,0.47,0c8.43,0,16.44,3.28,22.58,9.28
					c6.25,6.09,9.74,14.17,9.83,22.74c0.07,6.39-2.04,12.73-6.28,18.82c-2.26,3.26-4.74,6.43-7.25,9.54
					c1.58,0.31,3.1,0.68,4.55,1.09c1.7,0.49,3.31,0.99,4.84,1.51c1.97-2.44,3.96-4.95,5.7-7.59c7.27-11.03,9.24-22.59,5.85-34.38
					c-6.1-21.23-27.87-33.92-49.54-28.89c-18.48,4.29-31.93,21.18-31.97,40.16c-0.09,4.96,0.98,9.99,3.29,15.39
					c2.95,6.9,7.3,12.87,11.85,18.37c2.49-1.55,5.26-2.86,8.31-3.93C130.75,94.94,130.37,94.42,129.97,93.92z"/>
				<path class="st2" d="M146,88.99c-1.62-1.77-3.29-3.61-4.73-5.54c-3.37-4.52-5.71-8.09-7.6-11.57c-0.75-1.37-2.3-5.14-0.62-10.49
					c2.17-6.93,8.94-11.93,16.13-11.93c0.05,0,0.1,0,0.15,0c7.36,0.07,14.15,5.17,16.14,12.12c0.81,2.85-0.23,7.82-0.25,7.87
					l-0.24,1.12H171c2.97,0,2.6,0.23,2.9-1.25l0.28-1.81l0,0c0.25-2.78,0.03-5.57-0.65-8.05c-2.71-9.93-11.22-17.1-21.69-18.26
					c-9.9-1.1-19.85,4.13-24.77,13.01c-2.82,5.1-3.79,10.16-2.88,15.06c0.59,3.18,1.96,6.58,4.31,10.69
					c2.82,4.95,6.42,9.33,10.18,13.49c3.22-0.62,6.65-1,10.3-1.12c-0.04-0.04-0.08-0.08-0.12-0.13
					C147.92,91.1,146.94,90.03,146,88.99z"/>
				<path class="st2" d="M172.65,75.54h-0.13L169,75.53c-1,0-1.97,0-2.93,0.01h-17.95v7.36c0,0.31,0.25,0.57,0.57,0.57h8.06
					c-2.36,2.87-4.74,5.79-7.09,8.69c-0.05,0.06-0.09,0.11-0.13,0.15c0.74-0.02,1.49-0.03,2.25-0.03c3.02,0,5.89,0.12,8.6,0.35
					c3.97-4.64,7.76-9.56,11.3-15.66L172.65,75.54z"/>
				<circle class="st1" cx="149.06" cy="64.61" r="7.85"/>
			</g>
		</g>
	</g>
	<rect x="63.43" y="222.51" class="st1" width="171.66" height="51.66"/>
</g>
<g>
	<path class="st0" d="M71.23,268.4v-8.13h32.54v-8.13H71.23v-24.4h40.67v8.13H79.36V244h32.54v24.4H71.23z"/>
	<path class="st0" d="M119.95,268.4v-40.67h8.13v40.67H119.95z"/>
	<path class="st0" d="M136.15,268.4v-40.67h40.67v8.13h-32.54v24.4h24.4v-8.13h-16.27V244h24.4v24.4H136.15z"/>
	<path class="st0" d="M184.87,268.4v-40.67h40.67v40.67H184.87z M193.01,260.26h24.4v-24.4h-24.4V260.26z"/>
</g>
</svg>
